<?xml version="1.0" encoding="UTF-8"?>
<svg width="256px" height="256px" viewBox="0 0 256 256" version="1.1" xmlns="http://www.w3.org/2000/svg" preserveAspectRatio="xMidYMid">
    <title>Binance</title>
    <g>
        <path d="M128,0 C198.692448,0 256,57.307552 256,128 C256,198.692448 198.692448,256 128,256 C57.307552,256 0,198.692448 0,128 C0,57.307552 57.307552,0 128,0 Z" fill="#F3BA2F"/>
        <path d="M127.999696,59.4835362 L162.738589,94.2218931 L184.606431,72.3535436 L127.999696,15.7474083 L71.3929611,72.3535436 L93.2608035,94.2218931 L127.999696,59.4835362 Z M59.4832494,127.999696 L81.3510918,106.131854 L59.4832494,84.2635042 L37.6154071,106.131854 L59.4832494,127.999696 Z M127.999696,196.515856 L93.2608035,161.777499 L71.3929611,183.645849 L127.999696,240.251984 L184.606431,183.645849 L162.738589,161.777499 L127.999696,196.515856 Z M196.516143,127.999696 L218.383985,106.131854 L196.516143,84.2635042 L174.648301,106.131854 L196.516143,127.999696 Z M127.999696,106.131854 L149.867538,127.999696 L127.999696,149.867538 L106.131854,127.999696 L127.999696,106.131854 Z" fill="#FFFFFF"/>
    </g>
</svg>
