<?xml version="1.0" encoding="UTF-8"?>
<svg width="256px" height="256px" viewBox="0 0 256 256" version="1.1" xmlns="http://www.w3.org/2000/svg" preserveAspectRatio="xMidYMid">
    <title>Dogecoin</title>
    <g>
        <path d="M128,0 C198.692448,0 256,57.307552 256,128 C256,198.692448 198.692448,256 128,256 C57.307552,256 0,198.692448 0,128 C0,57.307552 57.307552,0 128,0 Z" fill="#C2A633"/>
        <path d="M142.2,109 L142.2,96.9 L116.5,96.9 L116.5,69.2 L91.8,69.2 L91.8,96.9 L73.3,96.9 L73.3,109 L91.8,109 L91.8,147 L73.3,147 L73.3,159.1 L91.8,159.1 L91.8,186.8 L116.5,186.8 L116.5,159.1 L142.2,159.1 L142.2,147 L116.5,147 L116.5,109 L142.2,109 Z M182.7,128 C182.7,162.7 154.5,190.9 119.8,190.9 C85.1,190.9 56.9,162.7 56.9,128 C56.9,93.3 85.1,65.1 119.8,65.1 C154.5,65.1 182.7,93.3 182.7,128 Z" fill="#FFFFFF"/>
    </g>
</svg>
