<?xml version="1.0" encoding="UTF-8"?>
<svg xmlns="http://www.w3.org/2000/svg" viewBox="0 0 100 60">
  <!-- 배경 -->
  <rect width="100" height="60" fill="#FFFFFF"/>
  
  <!-- 줄무늬 -->
  <rect y="0" width="100" height="4.6" fill="#B22234"/>
  <rect y="9.2" width="100" height="4.6" fill="#B22234"/>
  <rect y="18.4" width="100" height="4.6" fill="#B22234"/>
  <rect y="27.6" width="100" height="4.6" fill="#B22234"/>
  <rect y="36.8" width="100" height="4.6" fill="#B22234"/>
  <rect y="46" width="100" height="4.6" fill="#B22234"/>
  <rect y="55.2" width="100" height="4.8" fill="#B22234"/>
  
  <!-- 파란색 영역 -->
  <rect width="40" height="32.2" fill="#3C3B6E"/>
  
  <!-- 별 -->
  <g fill="#FFFFFF">
    <!-- 첫 번째 줄 -->
    <polygon points="3,3 4,5.5 6.5,5.5 4.5,7 5.5,9.5 3,8 0.5,9.5 1.5,7 -0.5,5.5 2,5.5"/>
    <polygon points="11,3 12,5.5 14.5,5.5 12.5,7 13.5,9.5 11,8 8.5,9.5 9.5,7 7.5,5.5 10,5.5"/>
    <polygon points="19,3 20,5.5 22.5,5.5 20.5,7 21.5,9.5 19,8 16.5,9.5 17.5,7 15.5,5.5 18,5.5"/>
    <polygon points="27,3 28,5.5 30.5,5.5 28.5,7 29.5,9.5 27,8 24.5,9.5 25.5,7 23.5,5.5 26,5.5"/>
    <polygon points="35,3 36,5.5 38.5,5.5 36.5,7 37.5,9.5 35,8 32.5,9.5 33.5,7 31.5,5.5 34,5.5"/>
    
    <!-- 두 번째 줄 -->
    <polygon points="7,8 8,10.5 10.5,10.5 8.5,12 9.5,14.5 7,13 4.5,14.5 5.5,12 3.5,10.5 6,10.5"/>
    <polygon points="15,8 16,10.5 18.5,10.5 16.5,12 17.5,14.5 15,13 12.5,14.5 13.5,12 11.5,10.5 14,10.5"/>
    <polygon points="23,8 24,10.5 26.5,10.5 24.5,12 25.5,14.5 23,13 20.5,14.5 21.5,12 19.5,10.5 22,10.5"/>
    <polygon points="31,8 32,10.5 34.5,10.5 32.5,12 33.5,14.5 31,13 28.5,14.5 29.5,12 27.5,10.5 30,10.5"/>
    
    <!-- 세 번째 줄 -->
    <polygon points="3,13 4,15.5 6.5,15.5 4.5,17 5.5,19.5 3,18 0.5,19.5 1.5,17 -0.5,15.5 2,15.5"/>
    <polygon points="11,13 12,15.5 14.5,15.5 12.5,17 13.5,19.5 11,18 8.5,19.5 9.5,17 7.5,15.5 10,15.5"/>
    <polygon points="19,13 20,15.5 22.5,15.5 20.5,17 21.5,19.5 19,18 16.5,19.5 17.5,17 15.5,15.5 18,15.5"/>
    <polygon points="27,13 28,15.5 30.5,15.5 28.5,17 29.5,19.5 27,18 24.5,19.5 25.5,17 23.5,15.5 26,15.5"/>
    <polygon points="35,13 36,15.5 38.5,15.5 36.5,17 37.5,19.5 35,18 32.5,19.5 33.5,17 31.5,15.5 34,15.5"/>
    
    <!-- 네 번째 줄 -->
    <polygon points="7,18 8,20.5 10.5,20.5 8.5,22 9.5,24.5 7,23 4.5,24.5 5.5,22 3.5,20.5 6,20.5"/>
    <polygon points="15,18 16,20.5 18.5,20.5 16.5,22 17.5,24.5 15,23 12.5,24.5 13.5,22 11.5,20.5 14,20.5"/>
    <polygon points="23,18 24,20.5 26.5,20.5 24.5,22 25.5,24.5 23,23 20.5,24.5 21.5,22 19.5,20.5 22,20.5"/>
    <polygon points="31,18 32,20.5 34.5,20.5 32.5,22 33.5,24.5 31,23 28.5,24.5 29.5,22 27.5,20.5 30,20.5"/>
    
    <!-- 다섯 번째 줄 -->
    <polygon points="3,23 4,25.5 6.5,25.5 4.5,27 5.5,29.5 3,28 0.5,29.5 1.5,27 -0.5,25.5 2,25.5"/>
    <polygon points="11,23 12,25.5 14.5,25.5 12.5,27 13.5,29.5 11,28 8.5,29.5 9.5,27 7.5,25.5 10,25.5"/>
    <polygon points="19,23 20,25.5 22.5,25.5 20.5,27 21.5,29.5 19,28 16.5,29.5 17.5,27 15.5,25.5 18,25.5"/>
    <polygon points="27,23 28,25.5 30.5,25.5 28.5,27 29.5,29.5 27,28 24.5,29.5 25.5,27 23.5,25.5 26,25.5"/>
    <polygon points="35,23 36,25.5 38.5,25.5 36.5,27 37.5,29.5 35,28 32.5,29.5 33.5,27 31.5,25.5 34,25.5"/>
  </g>
</svg>
