<?xml version="1.0" encoding="UTF-8"?>
<svg width="256px" height="256px" viewBox="0 0 256 256" version="1.1" xmlns="http://www.w3.org/2000/svg" preserveAspectRatio="xMidYMid">
    <title>Cardano</title>
    <g>
        <path d="M128,0 C198.692448,0 256,57.307552 256,128 C256,198.692448 198.692448,256 128,256 C57.307552,256 0,198.692448 0,128 C0,57.307552 57.307552,0 128,0 Z" fill="#0033AD"/>
        <g transform="translate(41.000000, 41.000000)" fill="#FFFFFF">
            <path d="M173.6,87.2 C173.6,90.6 171.8,93.4 169.5,95.2 C167.2,97 164.3,97.8 161.4,97.3 C158.5,96.8 156.1,95.2 154.6,92.9 C153.1,90.6 152.6,87.7 153.1,84.8 C153.6,81.9 155.2,79.5 157.5,78 C159.8,76.5 162.7,76 165.6,76.5 C168.5,77 170.9,78.6 172.4,80.9 C173.1,82.7 173.6,84.8 173.6,87.2 Z"/>
            <path d="M20.8,87.2 C20.8,90.6 19,93.4 16.7,95.2 C14.4,97 11.5,97.8 8.6,97.3 C5.7,96.8 3.3,95.2 1.8,92.9 C0.3,90.6 -0.2,87.7 0.3,84.8 C0.8,81.9 2.4,79.5 4.7,78 C7,76.5 9.9,76 12.8,76.5 C15.7,77 18.1,78.6 19.6,80.9 C20.3,82.7 20.8,84.8 20.8,87.2 Z"/>
            <path d="M86.9,0 C90.3,0 93.1,1.8 94.9,4.1 C96.7,6.4 97.5,9.3 97,12.2 C96.5,15.1 94.9,17.5 92.6,19 C90.3,20.5 87.4,21 84.5,20.5 C81.6,20 79.2,18.4 77.7,16.1 C76.2,13.8 75.7,10.9 76.2,8 C76.7,5.1 78.3,2.7 80.6,1.2 C82.7,0.5 84.8,0 86.9,0 Z"/>
            <path d="M86.9,173.6 C90.3,173.6 93.1,175.4 94.9,177.7 C96.7,180 97.5,182.9 97,185.8 C96.5,188.7 94.9,191.1 92.6,192.6 C90.3,194.1 87.4,194.6 84.5,194.1 C81.6,193.6 79.2,192 77.7,189.7 C76.2,187.4 75.7,184.5 76.2,181.6 C76.7,178.7 78.3,176.3 80.6,174.8 C82.7,174.1 84.8,173.6 86.9,173.6 Z"/>
            <path d="M43.4,29.1 C46.8,29.1 49.6,30.9 51.4,33.2 C53.2,35.5 54,38.4 53.5,41.3 C53,44.2 51.4,46.6 49.1,48.1 C46.8,49.6 43.9,50.1 41,49.6 C38.1,49.1 35.7,47.5 34.2,45.2 C32.7,42.9 32.2,40 32.7,37.1 C33.2,34.2 34.8,31.8 37.1,30.3 C39.2,29.6 41.3,29.1 43.4,29.1 Z"/>
            <path d="M130.3,29.1 C133.7,29.1 136.5,30.9 138.3,33.2 C140.1,35.5 140.9,38.4 140.4,41.3 C139.9,44.2 138.3,46.6 136,48.1 C133.7,49.6 130.8,50.1 127.9,49.6 C125,49.1 122.6,47.5 121.1,45.2 C119.6,42.9 119.1,40 119.6,37.1 C120.1,34.2 121.7,31.8 124,30.3 C126.1,29.6 128.2,29.1 130.3,29.1 Z"/>
            <path d="M43.4,144.5 C46.8,144.5 49.6,146.3 51.4,148.6 C53.2,150.9 54,153.8 53.5,156.7 C53,159.6 51.4,162 49.1,163.5 C46.8,165 43.9,165.5 41,165 C38.1,164.5 35.7,162.9 34.2,160.6 C32.7,158.3 32.2,155.4 32.7,152.5 C33.2,149.6 34.8,147.2 37.1,145.7 C39.2,145 41.3,144.5 43.4,144.5 Z"/>
            <path d="M130.3,144.5 C133.7,144.5 136.5,146.3 138.3,148.6 C140.1,150.9 140.9,153.8 140.4,156.7 C139.9,159.6 138.3,162 136,163.5 C133.7,165 130.8,165.5 127.9,165 C125,164.5 122.6,162.9 121.1,160.6 C119.6,158.3 119.1,155.4 119.6,152.5 C120.1,149.6 121.7,147.2 124,145.7 C126.1,145 128.2,144.5 130.3,144.5 Z"/>
            <path d="M20.8,58.1 C24.2,58.1 27,59.9 28.8,62.2 C30.6,64.5 31.4,67.4 30.9,70.3 C30.4,73.2 28.8,75.6 26.5,77.1 C24.2,78.6 21.3,79.1 18.4,78.6 C15.5,78.1 13.1,76.5 11.6,74.2 C10.1,71.9 9.6,69 10.1,66.1 C10.6,63.2 12.2,60.8 14.5,59.3 C16.6,58.6 18.7,58.1 20.8,58.1 Z"/>
            <path d="M153.1,58.1 C156.5,58.1 159.3,59.9 161.1,62.2 C162.9,64.5 163.7,67.4 163.2,70.3 C162.7,73.2 161.1,75.6 158.8,77.1 C156.5,78.6 153.6,79.1 150.7,78.6 C147.8,78.1 145.4,76.5 143.9,74.2 C142.4,71.9 141.9,69 142.4,66.1 C142.9,63.2 144.5,60.8 146.8,59.3 C148.9,58.6 151,58.1 153.1,58.1 Z"/>
            <path d="M20.8,115.5 C24.2,115.5 27,117.3 28.8,119.6 C30.6,121.9 31.4,124.8 30.9,127.7 C30.4,130.6 28.8,133 26.5,134.5 C24.2,136 21.3,136.5 18.4,136 C15.5,135.5 13.1,133.9 11.6,131.6 C10.1,129.3 9.6,126.4 10.1,123.5 C10.6,120.6 12.2,118.2 14.5,116.7 C16.6,116 18.7,115.5 20.8,115.5 Z"/>
            <path d="M153.1,115.5 C156.5,115.5 159.3,117.3 161.1,119.6 C162.9,121.9 163.7,124.8 163.2,127.7 C162.7,130.6 161.1,133 158.8,134.5 C156.5,136 153.6,136.5 150.7,136 C147.8,135.5 145.4,133.9 143.9,131.6 C142.4,129.3 141.9,126.4 142.4,123.5 C142.9,120.6 144.5,118.2 146.8,116.7 C148.9,116 151,115.5 153.1,115.5 Z"/>
            <path d="M86.9,50.9 C88.9,50.9 90.8,51.6 92.1,52.9 C93.4,54.2 94.1,56.1 94.1,58.1 C94.1,60.1 93.4,62 92.1,63.3 C90.8,64.6 88.9,65.3 86.9,65.3 C84.9,65.3 83,64.6 81.7,63.3 C80.4,62 79.7,60.1 79.7,58.1 C79.7,56.1 80.4,54.2 81.7,52.9 C83,51.6 84.9,50.9 86.9,50.9 Z"/>
            <path d="M86.9,108.3 C88.9,108.3 90.8,109 92.1,110.3 C93.4,111.6 94.1,113.5 94.1,115.5 C94.1,117.5 93.4,119.4 92.1,120.7 C90.8,122 88.9,122.7 86.9,122.7 C84.9,122.7 83,122 81.7,120.7 C80.4,119.4 79.7,117.5 79.7,115.5 C79.7,113.5 80.4,111.6 81.7,110.3 C83,109 84.9,108.3 86.9,108.3 Z"/>
            <path d="M58.1,79.7 C60.1,79.7 62,80.4 63.3,81.7 C64.6,83 65.3,84.9 65.3,86.9 C65.3,88.9 64.6,90.8 63.3,92.1 C62,93.4 60.1,94.1 58.1,94.1 C56.1,94.1 54.2,93.4 52.9,92.1 C51.6,90.8 50.9,88.9 50.9,86.9 C50.9,84.9 51.6,83 52.9,81.7 C54.2,80.4 56.1,79.7 58.1,79.7 Z"/>
            <path d="M115.5,79.7 C117.5,79.7 119.4,80.4 120.7,81.7 C122,83 122.7,84.9 122.7,86.9 C122.7,88.9 122,90.8 120.7,92.1 C119.4,93.4 117.5,94.1 115.5,94.1 C113.5,94.1 111.6,93.4 110.3,92.1 C109,90.8 108.3,88.9 108.3,86.9 C108.3,84.9 109,83 110.3,81.7 C111.6,80.4 113.5,79.7 115.5,79.7 Z"/>
            <path d="M86.9,79.7 C88.9,79.7 90.8,80.4 92.1,81.7 C93.4,83 94.1,84.9 94.1,86.9 C94.1,88.9 93.4,90.8 92.1,92.1 C90.8,93.4 88.9,94.1 86.9,94.1 C84.9,94.1 83,93.4 81.7,92.1 C80.4,90.8 79.7,88.9 79.7,86.9 C79.7,84.9 80.4,83 81.7,81.7 C83,80.4 84.9,79.7 86.9,79.7 Z"/>
        </g>
    </g>
</svg>
