<?xml version="1.0" encoding="UTF-8"?>
<svg width="256px" height="256px" viewBox="0 0 256 256" version="1.1" xmlns="http://www.w3.org/2000/svg" preserveAspectRatio="xMidYMid">
    <title>Polkadot</title>
    <g>
        <path d="M128,0 C198.692448,0 256,57.307552 256,128 C256,198.692448 198.692448,256 128,256 C57.307552,256 0,198.692448 0,128 C0,57.307552 57.307552,0 128,0 Z" fill="#E6007A"/>
        <path d="M108.0384,69.0624 C118.656,69.0624 127.2768,77.6832 127.2768,88.3008 C127.2768,98.9184 118.656,107.5392 108.0384,107.5392 C97.4208,107.5392 88.8,98.9184 88.8,88.3008 C88.8,77.6832 97.4208,69.0624 108.0384,69.0624 Z M147.9616,69.0624 C158.5792,69.0624 167.2,77.6832 167.2,88.3008 C167.2,98.9184 158.5792,107.5392 147.9616,107.5392 C137.344,107.5392 128.7232,98.9184 128.7232,88.3008 C128.7232,77.6832 137.344,69.0624 147.9616,69.0624 Z M108.0384,148.4608 C118.656,148.4608 127.2768,157.0816 127.2768,167.6992 C127.2768,178.3168 118.656,186.9376 108.0384,186.9376 C97.4208,186.9376 88.8,178.3168 88.8,167.6992 C88.8,157.0816 97.4208,148.4608 108.0384,148.4608 Z M147.9616,148.4608 C158.5792,148.4608 167.2,157.0816 167.2,167.6992 C167.2,178.3168 158.5792,186.9376 147.9616,186.9376 C137.344,186.9376 128.7232,178.3168 128.7232,167.6992 C128.7232,157.0816 137.344,148.4608 147.9616,148.4608 Z M68.1152,108.9856 C78.7328,108.9856 87.3536,117.6064 87.3536,128.224 C87.3536,138.8416 78.7328,147.4624 68.1152,147.4624 C57.4976,147.4624 48.8768,138.8416 48.8768,128.224 C48.8768,117.6064 57.4976,108.9856 68.1152,108.9856 Z M187.8848,108.9856 C198.5024,108.9856 207.1232,117.6064 207.1232,128.224 C207.1232,138.8416 198.5024,147.4624 187.8848,147.4624 C177.2672,147.4624 168.6464,138.8416 168.6464,128.224 C168.6464,117.6064 177.2672,108.9856 187.8848,108.9856 Z M128,88.3008 C138.6176,88.3008 147.2384,96.9216 147.2384,107.5392 C147.2384,118.1568 138.6176,126.7776 128,126.7776 C117.3824,126.7776 108.7616,118.1568 108.7616,107.5392 C108.7616,96.9216 117.3824,88.3008 128,88.3008 Z M128,129.2224 C138.6176,129.2224 147.2384,137.8432 147.2384,148.4608 C147.2384,159.0784 138.6176,167.6992 128,167.6992 C117.3824,167.6992 108.7616,159.0784 108.7616,148.4608 C108.7616,137.8432 117.3824,129.2224 128,129.2224 Z" fill="#FFFFFF"/>
    </g>
</svg>
