<?xml version="1.0" encoding="UTF-8"?>
<svg width="256px" height="228px" viewBox="0 0 256 228" version="1.1" xmlns="http://www.w3.org/2000/svg" preserveAspectRatio="xMidYMid">
    <title>Solana</title>
    <g>
        <path d="M176.617,40.4842 L107.377,109.724 L75.3223,77.6687 C73.5673,75.9137 70.7252,75.9137 68.9702,77.6687 L4.32727,142.312 C2.57227,144.067 2.57227,146.909 4.32727,148.664 L36.3819,180.719 C38.1369,182.474 40.979,182.474 42.734,180.719 L107.377,116.076 L139.432,148.131 C141.187,149.886 144.029,149.886 145.784,148.131 L210.427,83.4887 C212.182,81.7337 212.182,78.8916 210.427,77.1366 L178.372,45.0819 C176.617,43.3269 173.775,43.3269 172.02,45.0819 L176.617,40.4842 Z" fill="#000000"/>
        <path d="M4.32727,77.6687 C2.57227,79.4237 2.57227,82.2658 4.32727,84.0208 L36.3819,116.076 C38.1369,117.831 40.979,117.831 42.734,116.076 L107.377,51.4329 L139.432,83.4887 C141.187,85.2437 144.029,85.2437 145.784,83.4887 L210.427,18.8456 C212.182,17.0906 212.182,14.2485 210.427,12.4935 L178.372,0 C176.617,-1.755 173.775,-1.755 172.02,0 L107.377,45.0819 L75.3223,13.0262 C73.5673,11.2712 70.7252,11.2712 68.9702,13.0262 L4.32727,77.6687 Z" fill="#00FFA3"/>
        <path d="M176.617,227.733 C178.372,229.488 181.214,229.488 182.969,227.733 L247.612,163.09 C249.367,161.335 249.367,158.493 247.612,156.738 L215.557,124.683 C213.802,122.928 210.96,122.928 209.205,124.683 L144.562,189.326 L112.507,157.271 C110.752,155.516 107.91,155.516 106.155,157.271 L41.5123,221.914 C39.7573,223.669 39.7573,226.511 41.5123,228.266 L73.5669,227.733 C75.3219,229.488 78.164,229.488 79.919,227.733 L144.562,163.09 L176.617,195.145 C178.372,196.9 181.214,196.9 182.969,195.145 L247.612,130.502 C249.367,128.747 249.367,125.905 247.612,124.15 L215.557,92.0954 C213.802,90.3404 210.96,90.3404 209.205,92.0954 L144.562,156.738 L112.507,124.683 C110.752,122.928 107.91,122.928 106.155,124.683 L41.5123,189.326 C39.7573,191.081 39.7573,193.923 41.5123,195.678 L73.5669,227.733 L176.617,227.733 Z" fill="#00FFA3"/>
    </g>
</svg>
