<?xml version="1.0" encoding="UTF-8"?>
<svg width="256px" height="256px" viewBox="0 0 256 256" version="1.1" xmlns="http://www.w3.org/2000/svg" preserveAspectRatio="xMidYMid">
    <title>Tether</title>
    <g>
        <path d="M128,0 C198.692448,0 256,57.307552 256,128 C256,198.692448 198.692448,256 128,256 C57.307552,256 0,198.692448 0,128 C0,57.307552 57.307552,0 128,0 Z" fill="#26A17B"/>
        <path d="M128.0005,65 C95.3925,65 69.0835,67.8 69.0835,71.4 L69.0835,112.15 C69.0835,112.15 95.1245,104.8 128.0005,104.8 C160.8765,104.8 186.9175,112.15 186.9175,112.15 L186.9175,71.4 C186.9175,67.8 160.6085,65 128.0005,65 M128.0005,176.35 C102.1705,176.35 81.0705,172.2 69.0835,166.35 L69.0835,189.4 C69.0835,193 95.3925,195.8 128.0005,195.8 C160.6085,195.8 186.9175,193 186.9175,189.4 L186.9175,166.35 C174.9305,172.2 153.8305,176.35 128.0005,176.35" fill="#FFFFFF"/>
        <path d="M186.9175,125.65 L186.9175,112.15 C186.9175,112.15 160.8765,104.8 128.0005,104.8 C95.1245,104.8 69.0835,112.15 69.0835,112.15 L69.0835,125.65 C69.0835,125.65 95.1245,118.3 128.0005,118.3 C160.8765,118.3 186.9175,125.65 186.9175,125.65 M128.0005,162.85 C102.1705,162.85 81.0705,158.7 69.0835,152.85 L69.0835,166.35 C81.0705,172.2 102.1705,176.35 128.0005,176.35 C153.8305,176.35 174.9305,172.2 186.9175,166.35 L186.9175,152.85 C174.9305,158.7 153.8305,162.85 128.0005,162.85 M128.0005,149.35 C102.1705,149.35 81.0705,145.2 69.0835,139.35 L69.0835,152.85 C81.0705,158.7 102.1705,162.85 128.0005,162.85 C153.8305,162.85 174.9305,158.7 186.9175,152.85 L186.9175,139.35 C174.9305,145.2 153.8305,149.35 128.0005,149.35 M128.0005,135.85 C102.1705,135.85 81.0705,131.7 69.0835,125.85 L69.0835,139.35 C81.0705,145.2 102.1705,149.35 128.0005,149.35 C153.8305,149.35 174.9305,145.2 186.9175,139.35 L186.9175,125.85 C174.9305,131.7 153.8305,135.85 128.0005,135.85" fill="#FFFFFF"/>
    </g>
</svg>
