<?xml version="1.0" encoding="UTF-8"?>
<svg width="256px" height="256px" viewBox="0 0 256 256" version="1.1" xmlns="http://www.w3.org/2000/svg" preserveAspectRatio="xMidYMid">
    <title>XRP</title>
    <g>
        <path d="M128,0 C198.692448,0 256,57.307552 256,128 C256,198.692448 198.692448,256 128,256 C57.307552,256 0,198.692448 0,128 C0,57.307552 57.307552,0 128,0 Z" fill="#23292F"/>
        <path d="M105.18612,106.81012 L127.999936,83.9969 L150.813752,106.81012 L162.618172,95.00688 L127.999936,60.3906 L93.3817,95.00688 L105.18612,106.81012 Z M60.3906,127.999936 L72.19384,116.196996 L83.9969,127.999936 L72.19384,139.802876 L60.3906,127.999936 Z M105.18612,149.189752 L127.999936,172.003172 L150.813752,149.189752 L162.618172,160.992692 L127.999936,195.609264 L93.3817,160.992692 L105.18612,149.189752 Z M172.003172,127.999936 L183.80661,116.196996 L195.609264,127.999936 L183.80661,139.802876 L172.003172,127.999936 Z M149.189752,127.999936 L127.999936,149.189752 L106.81012,127.999936 L127.999936,106.81012 L149.189752,127.999936 Z" fill="#FFFFFF"/>
    </g>
</svg>
