<?xml version="1.0" encoding="UTF-8"?>
<svg width="40" height="40" viewBox="0 0 40 40" xmlns="http://www.w3.org/2000/svg">
    <path d="M7.8 11.5C14.4 5 25.6 5 32.2 11.5L33 12.3C33.4 12.7 33.4 13.3 33 13.7L30.5 16.2C30.3 16.4 30 16.4 29.8 16.2L28.7 15.1C24 10.5 16 10.5 11.3 15.1L10.1 16.3C9.9 16.5 9.6 16.5 9.4 16.3L6.9 13.8C6.5 13.4 6.5 12.8 6.9 12.4L7.8 11.5ZM37.1 16.3L39.3 18.5C39.7 18.9 39.7 19.5 39.3 19.9L28.7 30.4C28.3 30.8 27.7 30.8 27.3 30.4L19.7 22.9C19.6 22.8 19.4 22.8 19.3 22.9L11.7 30.4C11.3 30.8 10.7 30.8 10.3 30.4L-0.3 19.9C-0.7 19.5 -0.7 18.9 -0.3 18.5L1.9 16.3C2.3 15.9 2.9 15.9 3.3 16.3L10.9 23.8C11 23.9 11.2 23.9 11.3 23.8L18.9 16.3C19.3 15.9 19.9 15.9 20.3 16.3L27.9 23.8C28 23.9 28.2 23.9 28.3 23.8L35.9 16.3C36.1 15.9 36.7 15.9 37.1 16.3Z" fill="#3B99FC"/>
</svg>
