<?xml version="1.0" encoding="UTF-8"?>
<svg xmlns="http://www.w3.org/2000/svg" viewBox="0 0 100 60">
  <!-- 배경 -->
  <rect width="100" height="60" fill="#DE2910"/>
  
  <!-- 큰 별 -->
  <polygon points="20,10 22.4,17.6 30,17.6 23.8,22.4 26.2,30 20,25.2 13.8,30 16.2,22.4 10,17.6 17.6,17.6" fill="#FFDE00"/>
  
  <!-- 작은 별 1 -->
  <polygon points="35,5 35.9,7.6 38.5,7.6 36.3,9.3 37.2,11.9 35,10.2 32.8,11.9 33.7,9.3 31.5,7.6 34.1,7.6" fill="#FFDE00"/>
  
  <!-- 작은 별 2 -->
  <polygon points="40,15 40.9,17.6 43.5,17.6 41.3,19.3 42.2,21.9 40,20.2 37.8,21.9 38.7,19.3 36.5,17.6 39.1,17.6" fill="#FFDE00"/>
  
  <!-- 작은 별 3 -->
  <polygon points="35,25 35.9,27.6 38.5,27.6 36.3,29.3 37.2,31.9 35,30.2 32.8,31.9 33.7,29.3 31.5,27.6 34.1,27.6" fill="#FFDE00"/>
  
  <!-- 작은 별 4 -->
  <polygon points="30,15 30.9,17.6 33.5,17.6 31.3,19.3 32.2,21.9 30,20.2 27.8,21.9 28.7,19.3 26.5,17.6 29.1,17.6" fill="#FFDE00"/>
</svg>
