<?xml version="1.0" encoding="UTF-8"?>
<svg xmlns="http://www.w3.org/2000/svg" viewBox="0 0 100 60">
  <!-- 배경 -->
  <rect width="100" height="60" fill="#FFFFFF"/>
  
  <!-- 태극 문양 -->
  <circle cx="50" cy="30" r="12" fill="#CD2E3A"/>
  <path d="M50,18 C56.6,18 62,23.4 62,30 C62,36.6 56.6,42 50,42 C43.4,42 38,36.6 38,30" fill="#0047A0"/>
  <path d="M50,18 C43.4,18 38,23.4 38,30 C38,36.6 43.4,42 50,42 C56.6,42 62,36.6 62,30" fill="#CD2E3A"/>
  
  <!-- 건괘 (☰) - 북서쪽 -->
  <g transform="translate(25, 15)">
    <rect x="0" y="0" width="12" height="2" fill="#000000"/>
    <rect x="0" y="4" width="12" height="2" fill="#000000"/>
    <rect x="0" y="8" width="12" height="2" fill="#000000"/>
  </g>
  
  <!-- 곤괘 (☷) - 남서쪽 -->
  <g transform="translate(25, 43)">
    <rect x="0" y="0" width="12" height="2" fill="#000000"/>
    <rect x="0" y="4" width="12" height="2" fill="#000000"/>
    <rect x="0" y="8" width="12" height="2" fill="#000000"/>
  </g>
  
  <!-- 감괘 (☵) - 남동쪽 -->
  <g transform="translate(63, 43)">
    <rect x="0" y="0" width="12" height="2" fill="#000000"/>
    <rect x="0" y="4" width="12" height="2" fill="#000000"/>
    <rect x="0" y="8" width="12" height="2" fill="#000000"/>
  </g>
  
  <!-- 이괘 (☲) - 북동쪽 -->
  <g transform="translate(63, 15)">
    <rect x="0" y="0" width="12" height="2" fill="#000000"/>
    <rect x="0" y="4" width="12" height="2" fill="#000000"/>
    <rect x="0" y="8" width="12" height="2" fill="#000000"/>
  </g>
</svg>
