<?xml version="1.0" encoding="UTF-8"?>
<svg width="40" height="40" viewBox="0 0 40 40" xmlns="http://www.w3.org/2000/svg">
    <path d="M35.0726 3.07275L22.1359 13.3344L24.7179 7.18623L35.0726 3.07275Z" fill="#E17726"/>
    <path d="M4.92725 3.07275L17.7546 13.4161L15.2821 7.18623L4.92725 3.07275Z" fill="#E27625"/>
    <path d="M30.2923 27.9161L26.7897 33.8548L34.4461 36.1445L36.6333 28.0795L30.2923 27.9161Z" fill="#E27625"/>
    <path d="M3.38461 28.0795L5.55384 36.1445L13.2102 33.8548L9.70769 27.9161L3.38461 28.0795Z" fill="#E27625"/>
    <path d="M12.7795 17.8875L10.5641 21.3085L18.1384 21.6762L17.8871 13.5795L12.7795 17.8875Z" fill="#E27625"/>
    <path d="M27.2205 17.8875L22.0308 13.4979L21.8615 21.6762L29.4359 21.3085L27.2205 17.8875Z" fill="#E27625"/>
    <path d="M13.2103 33.8547L17.7231 31.4833L13.8205 28.1343L13.2103 33.8547Z" fill="#E27625"/>
    <path d="M22.2769 31.4833L26.7897 33.8547L26.1795 28.1343L22.2769 31.4833Z" fill="#E27625"/>
</svg>
